<svg width="24" height="24" viewBox="0 0 24 24" fill="none" xmlns="http://www.w3.org/2000/svg">
<path d="M1.4694 21.4699C1.17666 21.763 1.1769 22.2379 1.46994 22.5306C1.76298 22.8233 2.23786 22.8231 2.5306 22.5301L1.4694 21.4699ZM7.18383 17.8721C7.47657 17.5791 7.47633 17.1042 7.18329 16.8114C6.89024 16.5187 6.41537 16.5189 6.12263 16.812L7.18383 17.8721ZM15.4588 5.4803L18.541 8.56572L19.6022 7.5056L16.52 4.42018L15.4588 5.4803ZM9.26897 18.8989L5.15229 14.7781L4.09109 15.8382L8.20777 19.9591L9.26897 18.8989ZM17.3032 14.2922L15.386 15.0125L15.9136 16.4167L17.8307 15.6964L17.3032 14.2922ZM9.03642 8.63983L9.73087 6.74442L8.32243 6.22838L7.62798 8.12379L9.03642 8.63983ZM6.04438 11.3965C6.75583 11.2003 7.29719 11.0625 7.73987 10.7438L6.86346 9.5265C6.69053 9.65101 6.46601 9.72432 5.6457 9.95048L6.04438 11.3965ZM7.62798 8.12379C7.33502 8.92336 7.24338 9.14157 7.10499 9.30395L8.24665 10.2768C8.60041 9.86179 8.7823 9.33341 9.03642 8.63983L7.62798 8.12379ZM7.73987 10.7438C7.92696 10.6091 8.09712 10.4523 8.24665 10.2768L7.10499 9.30395C7.0337 9.38761 6.9526 9.46233 6.86346 9.5265L7.73987 10.7438ZM15.386 15.0125C14.697 15.2714 14.1716 15.4571 13.76 15.8135L14.742 16.9475C14.9028 16.8082 15.1192 16.7152 15.9136 16.4167L15.386 15.0125ZM14.1037 18.4001C14.329 17.5813 14.4021 17.3569 14.5263 17.1838L13.3075 16.3094C12.9902 16.7517 12.8529 17.2919 12.6574 18.0022L14.1037 18.4001ZM13.76 15.8135C13.5903 15.9605 13.4384 16.1269 13.3075 16.3094L14.5263 17.1838C14.5887 17.0968 14.6611 17.0175 14.742 16.9475L13.76 15.8135ZM5.15229 14.7781C4.50615 14.1313 4.06799 13.691 3.78366 13.3338C3.49835 12.9753 3.46889 12.8201 3.46845 12.7505L1.96848 12.76C1.97215 13.3422 2.26127 13.8297 2.61002 14.2679C2.95976 14.7073 3.47115 15.2176 4.09109 15.8382L5.15229 14.7781ZM5.6457 9.95048C4.80048 10.1835 4.10396 10.3743 3.58296 10.5835C3.06341 10.792 2.57116 11.0732 2.28053 11.5778L3.58038 12.3264C3.615 12.2663 3.71693 12.146 4.1418 11.9755C4.56523 11.8055 5.16337 11.6394 6.04438 11.3965L5.6457 9.95048ZM3.46845 12.7505C3.46751 12.6016 3.50616 12.4553 3.58038 12.3264L2.28053 11.5778C2.07354 11.9372 1.96586 12.3452 1.96848 12.76L3.46845 12.7505ZM8.20777 19.9591C8.83164 20.5836 9.34464 21.0987 9.78647 21.4506C10.227 21.8015 10.7179 22.0922 11.3041 22.0931L11.3064 20.5931C11.2369 20.593 11.0814 20.5644 10.721 20.2773C10.3618 19.9912 9.91923 19.5499 9.26897 18.8989L8.20777 19.9591ZM12.6574 18.0022C12.4133 18.8897 12.2462 19.4924 12.0751 19.9188C11.9033 20.3467 11.7821 20.4487 11.7215 20.4833L12.465 21.7861C12.974 21.4956 13.2573 21.0004 13.4671 20.4775C13.6776 19.9532 13.8694 19.2516 14.1037 18.4001L12.6574 18.0022ZM11.3041 22.0931C11.7112 22.0937 12.1114 21.9879 12.465 21.7861L11.7215 20.4833C11.595 20.5555 11.4519 20.5933 11.3064 20.5931L11.3041 22.0931ZM18.541 8.56572C19.6045 9.63026 20.3403 10.3695 20.7917 10.9788C21.2353 11.5774 21.2863 11.8959 21.2321 12.1464L22.6982 12.4634C22.8881 11.5854 22.5382 10.8162 21.9969 10.0857C21.4635 9.36596 20.6305 8.5349 19.6022 7.5056L18.541 8.56572ZM17.8307 15.6964C19.1921 15.1849 20.294 14.773 21.0771 14.3384C21.8718 13.8973 22.5083 13.3416 22.6982 12.4634L21.2321 12.1464C21.178 12.3968 21.0001 12.6655 20.3491 13.0268C19.6865 13.3946 18.7112 13.7632 17.3032 14.2922L17.8307 15.6964ZM16.52 4.42018C15.4841 3.38324 14.6481 2.54357 13.9246 2.00642C13.1908 1.46169 12.4175 1.10916 11.5357 1.30371L11.8588 2.76849C12.1086 2.71339 12.4277 2.76334 13.0304 3.21079C13.6433 3.66583 14.3876 4.40805 15.4588 5.4803L16.52 4.42018ZM9.73087 6.74442C10.2525 5.32079 10.6161 4.33407 10.9812 3.66319C11.3402 3.00342 11.609 2.82361 11.8588 2.76849L11.5357 1.30371C10.654 1.49823 10.1005 2.14336 9.66362 2.94622C9.23278 3.73797 8.82688 4.85158 8.32243 6.22838L9.73087 6.74442ZM2.5306 22.5301L7.18383 17.8721L6.12263 16.812L1.4694 21.4699L2.5306 22.5301Z" fill="#0088FF"/>
</svg>
